<svg id="Capa_1" data-name="Capa 1" xmlns="http://www.w3.org/2000/svg" viewBox="0 0 595.28 841.89"><defs><style>.cls-1{fill:#18203a;}</style></defs><path class="cls-1" d="M329.74,214.8l118.92,27.81a813.67,813.67,0,0,1-86,104.9V318.37a32.62,32.62,0,0,0-2.49-12.65,31.85,31.85,0,0,0-17.36-17.36,32.61,32.61,0,0,0-12.65-2.48H184.81q-38.46,0-70.94,13.14a169.42,169.42,0,0,0-56.3,36.71A167.32,167.32,0,0,0,20.37,392Q7,424.76,7,463.7V641.53H71.46v-59.4a652,652,0,0,0,226.69-94.92V641.53h64.49V438.77A712.3,712.3,0,0,0,501,280q25.47,49.84,51,99.69,18.15-139.53,36.31-279.06ZM298.15,406.06c-4.54,3.61-9.15,7.21-13.86,10.75,0,0-76,57.18-147.24,81.77-13.43,4.64-27.92,8.94-27.92,8.94-12.73,3.79-25.29,7.09-37.67,10V463.7q0-27,7.56-46t19.23-31.62a92.49,92.49,0,0,1,25.54-19.84,138.23,138.23,0,0,1,26.42-10.67,127.71,127.71,0,0,1,22.07-4.34q9.54-.87,12.53-.87H298.15Z"/></svg>